<svg xmlns="http://www.w3.org/2000/svg" width="208" height="130" ><style><![CDATA[.B{fill:#fff}.C{fill-rule:nonzero}.D{stroke-linecap:round}.E{fill:#ed5c37}.F{fill:#263238}.G{stroke:#263238}.H{stroke-linejoin:round}.I{fill:#5c5c5c}]]></style><g fill="none" fill-rule="evenodd"><g class="C F"><path d="M33.19 62.63l26.65 6.5A2 2 0 0 1 61 72l-22.09 41.09 9.34 7.83-9.93-2.11-7.83-3.19 1.16-4.93 14.11-34.06a1.22 1.22 0 0 0-1.14-1.65H15s-6-5.59-.2-13.18l18.39.83z" class="G H"/><path d="M24.35 113.29V86.4h-3.79v-3.6h9.78v3.6h-3.79v26.53l18.37 4.78v1.4h-2l-16.37-3.08v3.08h-2.2v-2.82l-14.98 2.82H7.38v-1.4z"/></g><g class="G H"><path d="M34.93 83H5.78L3 78.36a12.94 12.94 0 0 1-.93-11.55l1.76-4.38" stroke-width="2" class="D"/><g class="C"><path d="M35.93 35.67l6 7.69 15.57 1.4s6.48-3 7.88-3 5.25 6.13 5.25 6.13H56.77l-16.1 2.63-7.35-4.91 2.61-9.94z" class="I"/><path d="M35.53 32.08l3.72 23c.3 1.85.44 7.21-1.7 8.23a3 3 0 0 1-1.29.2c-2.95 0-5.8-.85-8.7-.85H16.63a3.49 3.49 0 0 1-3.19-2.07l-.2-.45a3.5 3.5 0 0 1-.21-2.21c1.29-5.51 6.89-26.72 8.13-29 1.39-2.59 6.19-4.39 6.19-4.39l8.18 7.54z" class="E"/><path d="M39.7 23.89l-3.19 1.42-2.31 5-6.39-6.21 1.77-4.08s-2.31-3.38-1.77-6.4 6.21-6.21 9.23-3.37 2.66 13.64 2.66 13.64z" class="B"/><path d="M40.89 10s2.11-.47 1.88-2.34-1.88.23-1.88-1.87 1.88-2.81.71-4-4.92-1.87-5.85-.23-.71 2.57-1.41 2.57-2.57-1.64-4 .47-.93 2.81-.93 2.81-5.38 2.1-5.38 5.61 5.53 6.92 5.53 6.92 3.59.33 5.23-1.3 2.11-4.45 2.57-5.62S40.89 10 40.89 10z" class="F"/><path d="M40.06 8.45l1.59 4.79v1.24l2.28 2.28-1.75 2.1.17 4.62-4 .29A4.43 4.43 0 0 1 33.9 21l-.95-2.44a2.56 2.56 0 0 1-1.59-2.49c0-2-.18-2.66.88-2.66a10.08 10.08 0 0 1 2.31.35l1.07-.53-.18-1.78 1.6-1.24.18-1.77 2.84.01z" class="B"/><path d="M28.34 21.5l9.39 9.18-1.8 4.99-9.98-11.18z" class="E"/><g fill="#b5b5b5"><rect transform="matrix(-1 0 0 -1 54.69 156.43)" x="9.17" y="74.42" width="35.35" height="7.59" rx="2.4"/><rect transform="matrix(-.991694 .128623 -.128623 -.991694 19.243478 115.907642)" x="2.184" y="45.863" width="6.39" height="25.36" rx="1.6"/></g><path d="M28.34 29.48l9.16 16.28 17.2-.7 8.59-1.8c1.2-.2 4.59 3.8 4.59 3.8h-12l-21.79 6.49-13.55-16.48" class="D E"/><path d="M54.73 47.33l-.44-2.28h.41l8.59-1.8c1.2-.2 4.59 3.8 4.59 3.8h-12l-1.15.28z" class="B"/><path d="M149.55 74l19.09 35.62a14.56 14.56 0 0 1 .84 4.88s-.21.42-1.06.42-9.54 3.82-11.87 3.82h-4.24l3.18-2.76 3.6-4s2 .46 2-3.36-22.56-34.17-23.41-36.5 3.82-3.81 5.3-3.6l5.73.85.84 4.63z" class="I"/><g class="B"><path d="M165.88 60.74l-31.74 9.08a2 2 0 0 0-1.18 2.91L158 111l-10.14 9.09 7 .87 5.51-2 3.11-2.58-1.16-4.93-14.12-34.1a1.21 1.21 0 0 1 1.14-1.64h33.5s7.49-7.17 1.7-14.76l-18.66-.21zm-11.6-36.85l3.19 1.42 2.31 5 6.39-6.21-1.77-4.1s2.3-3.38 1.77-6.4-6.21-6.21-9.23-3.37-2.66 13.66-2.66 13.66z"/><path d="M153.92 8.45l-1.59 4.79v1.24l-2.28 2.28 1.75 2.1-.17 4.62 4 .29a4.44 4.44 0 0 0 4.46-2.82l.94-2.44a2.56 2.56 0 0 0 1.6-2.49c0-2 .18-2.66-.89-2.66a10.06 10.06 0 0 0-2.3.35l-1.07-.53.18-1.78-1.6-1.24-.18-1.77-2.85.06z"/></g><path d="M159.73 35l-7.7 9.8-22.23-.53s-6.65-2.8-7.7-2.27-3.33 4.37-3.33 4.37l5.26-.87a13.78 13.78 0 0 0 3.67 1.05 8.81 8.81 0 0 0 2.63-.53l26.95 5.43 7.88-7.88-5.43-8.57z" class="I"/><g class="E"><path d="M158.67 32.7s-1.27 12.29 0 14 6.57 3.6 6.79 4.24 0 8.48.42 9.12a11.14 11.14 0 0 0 4 2.33h13.35s2.13-1.7 2.13-3.18-4.61-7-4.61-7-2.18-16.74-4.3-21-10.86-6.87-11.58-7.14-6.2 8.63-6.2 8.63z"/><path d="M165.63 21.5l-9.38 9.18 1.8 4.99 9.98-11.18z"/><path d="M165.63 29.48l-9.15 16.28-17.21-.7-8.58-1.8c-1.2-.2-4.6 3.8-4.6 3.8h12l21.79 6.49 13.55-16.48" class="D"/></g><path d="M139.25 47.33l.44-2.28h-.42l-8.58-1.8c-1.2-.2-4.6 3.8-4.6 3.8h12l1.16.28z" class="B"/><g class="F"><path d="M151 8.32s10.39 12.17 14.42 12.29c7.2.21 5.72-10.81 3.39-13.57-1.44-1.75-16.5-7.84-17.81 1.28z"/><path d="M161.85 13s1.06 5.09-.63 8.69-4.46 3.18-3.82 3.82 4.66 4.24 8.48 2.33S171 18.28 171 15.1" class="D"/></g></g></g><path d="M184.54 60.26l-18.66-.21-29 8.3c2.32 1.26 7.64 4.81 11.39 7.36.19-.4 5.48.48 6 .48L182.84 75s7.49-7.15 1.7-14.74zm-3.67 53.03V86.4h3.79v-3.6h-9.78v3.6h3.79v26.53l-18.37 4.78v1.4h1.99l16.38-3.08v3.08h2.2v-2.82l14.97 2.82h2v-1.4z" class="C F"/><g class="G H"><path d="M170.28 83h29.16l2.82-4.64a12.91 12.91 0 0 0 .94-11.55l-1.77-4.38" stroke-width="2" class="D"/><g class="C"><g fill="#b5b5b5"><rect x="159.7" y="74.41" width="35.35" height="7.59" rx="2.4"/><rect stroke-width=".998" transform="matrix(.991488 .130195 -.130195 .991488 10.323093 -25.101082)" x="193.446" y="46.092" width="6.38" height="25.322" rx="1.6"/></g><g stroke-width=".75" class="B"><path d="M89.56 48.33l-3.21-17.24h-1.64l3.21 17.24h-6.34v1.18h6.56 1.64zm-9.43-6.63l1.79.34 3.04-23.69-1.79-.35z"/><path d="M84.71 19.59l1.64 2.73-2.55 18.61-1.88 1.11zM62.24 48.53h15.24v1H62.24zm46.85-.2l3.22-17.24h1.64l-3.21 17.24h6.34v1.18h-6.56-1.64zm9.44-6.63l-1.79.34-3.04-23.69 1.79-.35z"/><path d="M113.95 19.59l-1.64 2.73 2.55 18.61 1.88 1.11zm22.47 29.82h-15.24v-1h15.24z"/></g><g fill="#f8e4df"><path d="M55.56 53.17h96.3v67.78h-96.3z"/><path d="M50.63 74.64h46.64v46.32H50.63zm60.76 0h46.64v46.32h-46.64z"/></g><path d="M53.71 49.05h100v4.44h-100z" class="B"/></g></g><path opacity=".173" d="M1 120.18h207v9H1z" class="C E"/></g></svg>