<svg xmlns="http://www.w3.org/2000/svg" xmlns:xlink="http://www.w3.org/1999/xlink" width="282" height="244" ><style><![CDATA[.B{stroke-linejoin:round}.C{fill-rule:nonzero}.D{stroke:#2e353a}.E{stroke-width:.63}.F{fill:#fff}.G{fill:#ed5c37}.H{fill:#2e353a}.I{stroke-linecap:round}.J{stroke-width:.525}]]></style><g fill="none" fill-rule="evenodd"><g class="C"><path d="M249.108 75.6c1.43-14.78 4.851-28.772-1.197-42.985C236.811 6.533 203.326-7.314 177.307 5.04c-13.306 6.3-24.683 15.517-39.337 18.9C98.419 33.069 37.372-15.567 15.844 41.057c-7.39 19.429-4.41 45.032 8.952 61.274 4.29 5.21 9.532 9.746 12.707 15.706 8.688 16.311-3.61 34.234-9.154 49.449-13.167 35.954 36.477 55.85 63.422 59.516 44.541 6.098 81.283-44.932 125.578-24.142 30.87 14.49 57.96-20.79 52.29-56.07-3.711-23.096-22.497-45.202-20.74-68.739l.208-2.451z" opacity=".147" class="G"/><g class="D E B"><g class="F"><circle cx="37.025" cy="63.46" r="21.754"/><circle cx="35.406" cy="61.299" r="21.754"/></g><circle cx="35.406" cy="61.299" r="19.593" class="H"/></g><use xlink:href="#B" class="G"/><use xlink:href="#B" fill="#000" opacity=".5"/></g><path d="M38.43 38.342l.63-2.312m-18.68 2.312c2.52 1.846 5.67 4.41 7.321 6.609 2.974 4.051 8.921 12.701 8.921 12.701-.17-5.81.29-11.621 1.373-17.331m-21.369-4.562l1.966 1.317m18.03 20.575S46.891 47.382 51.213 46.57s8.108 2.432 8.108 2.432M18.27 66.238c-2.52 1.588-2.728 2.52-2.728 2.52m43.508-1.65s-1.619-4.057-7.295-5.947S37.171 59 37.171 59s-12.505 4.095-17.079 6.231m11.61-7.775L37.164 59m-24.495-6.345c2.936.176 6.716.58 8.82 1.481 1.714.737 5.09 1.802 8.278 2.753M8.518 52.517l2.444.057m25.66 8.045s-7.56 11.34-8.108 14.055a27.52 27.52 0 0 0-.542 4.864m12.014-15.347c1.455 1.89 3.2 4.41 3.931 6.426a44.34 44.34 0 0 1 1.89 7.56m-8.108-16.746a28.51 28.51 0 0 0 1.443 1.695" class="B D I J"/><path d="M29.673 48.901s-1.392-5.67-.529-10.93 11.97-16.241 11.97-16.241c-.617 3.401-.923 6.851-.913 10.307 0 5.998-2.993 21.773-2.993 21.773s1.77-7.258 5.626-10.71 15.97-8.82 16.626-9.28-2.69 4.593-4.876 8.499S40.597 56.7 40.597 56.7s6.59-2.407 11.264-3.78 15.12 5.771 15.12 5.771-7.982-.92-12.94.977-12.304 4.177-12.304 4.177 6.728 1.493 9.652 3.717 7.006 9.299 7.006 9.299-6.388-4.731-10.54-5.412-9.778-2.955-9.778-2.955c.213 2.854.588 5.693 1.121 8.505.926 4.996 3.78 11.271 3.78 11.271s-7.264-4.095-9.255-7.327-2.633-11.082-2.633-11.082-3.301.038-5.67 3.717-4.114 13.268-4.114 13.268-3.881-8.19-3.736-12.6 8.952-12.083 8.952-12.083-7.472.712-11.239 2.413-7.056 6.394-7.056 6.394 0-10.647 3.641-13.923 13.98-1.386 13.98-1.386l-8.064-7.516c-2.016-1.89-5.078-8.001-5.078-8.001s3.364-.416 9.211 1.707c3.433 1.202 6.232 3.746 7.755 7.05z" class="C G"/><g class="B D I J"><path d="M20.551 45.322l-1.852-1.518m16.512-9.009c-.977 2.974-2.066 6.886-2.092 9.633-.05 5.04.164 15.517.164 15.517A80.09 80.09 0 0 0 22.05 46.677"/><path d="M36.76 30.505l-.832 2.211m-2.645 27.228s-14.332-2.35-18.314-.485-5.166 6.691-5.166 6.691m43.4-9.935c2.955-.164 3.66.435 3.66.435M20.582 80.709s-1.046-4.24 2.457-9.085 10.597-10.263 10.597-10.263 12.543-3.975 17.501-4.901"/><path d="M37.17 56.92l-3.528 4.441M49.827 41.92c-2.281 1.89-5.116 4.41-6.3 6.344-.964 1.6-3.087 4.41-5.122 7.062m14.71-15.945l-1.953 1.474M35.015 62.37s12.77 4.801 14.78 6.684a27.35 27.35 0 0 1 3.276 3.635m-18.705-5.468c-.088 2.381-.044 5.437.554 7.516a43.93 43.93 0 0 0 2.879 7.251M34.612 63.63l-.176 2.218"/></g><g class="C"><path d="M71.713 77.761h142.802c3.713 0 6.722 3.01 6.722 6.722v92.61a7.35 7.35 0 0 1-7.352 7.352H72.343a7.35 7.35 0 0 1-7.352-7.352v-92.61c0-3.713 3.01-6.722 6.722-6.722z" class="B D E F"/><g class="H"><use xlink:href="#C"/><use xlink:href="#D"/><use xlink:href="#E"/><use xlink:href="#C" x="-10.187"/><use xlink:href="#E" x="9.614"/><use xlink:href="#C" x="10.181"/><path d="M75.077 114.408H90.55v8.102H75.077z"/><use xlink:href="#E" x="-19.234"/><path d="M75.077 123.902h10.855v8.102H75.077z"/><use xlink:href="#C" x="20.368"/><use xlink:href="#E" x="-38.468"/><use xlink:href="#C" x="-30.555"/><use xlink:href="#C" x="-20.368"/><use xlink:href="#E" x="-28.854"/><use xlink:href="#E" x="-9.62"/><use xlink:href="#C" x="61.11"/><use xlink:href="#C" x="71.291"/><use xlink:href="#E" x="57.702"/><use xlink:href="#E" x="67.322"/><path d="M201.978 123.902h12.115v8.102h-12.115z"/><use xlink:href="#C" x="81.478"/><path d="M75.077 95.426h8.398v8.102h-8.398z"/><use xlink:href="#C" x="30.555"/><use xlink:href="#C" x="40.736"/><use xlink:href="#E" x="28.854"/><use xlink:href="#E" x="48.088"/><use xlink:href="#E" x="19.234"/><use xlink:href="#E" x="38.468"/><use xlink:href="#C" x="50.923"/><use xlink:href="#D" x="66.887"/><use xlink:href="#D" x="109.727" y="-9.494"/><use xlink:href="#D" x="100.17" y="-9.494"/><use xlink:href="#D" x="105.103"/><use xlink:href="#D" x="95.552"/><use xlink:href="#D" x="76.438"/><use xlink:href="#D" x="85.995"/><use xlink:href="#D" x="90.613" y="-9.494"/><use xlink:href="#D" x="81.062" y="-9.494"/><path d="M206.848 88.263h7.251v5.777h-7.251zm-131.771 0h8.165v5.777h-8.165zm0 45.127h139.022v8.423H75.077zm125.187-37.964h13.828v8.102h-13.828zm6.332 18.982h7.497v8.102h-7.497zm-2.306-1.449h-1.392v-8.039h-8.165v8.039h-1.386v-8.039h-8.165v8.039h-1.392v-8.039h-8.165v8.039h-1.392v-8.039h-8.165v8.039h-1.386v-8.039h-8.165v8.039h-1.392v-8.039h-8.165v8.039h-1.392v-8.039h-8.165v8.039h-1.386v-8.039h-8.165v8.039h-1.392v-8.039h-8.165v8.039h-1.392v-8.039h-8.165v8.039h-1.386v-8.039h-8.165v8.039h-1.392v-8.039H89.63v8.039h-1.392v-8.039H75.077v8.102h139.016v-8.102h-9.803z"/><use xlink:href="#D" x="42.84" y="-9.494"/><use xlink:href="#D" x="71.505" y="-9.494"/><use xlink:href="#D" x="23.732" y="-9.494"/><use xlink:href="#D" x="28.665"/><use xlink:href="#D" x="33.283" y="-9.494"/><use xlink:href="#D" x="14.175" y="-9.494"/><use xlink:href="#D" x="9.557"/><use xlink:href="#D" x="19.108"/><use xlink:href="#D" x="52.397" y="-9.494"/><use xlink:href="#D" x="57.33"/><use xlink:href="#D" x="61.948" y="-9.494"/><use xlink:href="#D" x="38.222"/><use xlink:href="#D" x="47.773"/><use xlink:href="#D" x="4.618" y="-9.494"/><path d="M230.158 19.801H55.232c-1.739.001-3.378.811-4.436 2.191s-1.414 3.173-.963 4.852L62.622 74.46c.655 2.444 2.869 4.143 5.399 4.145h17.854V81.9H200.34v-3.276h17.01c2.53-.002 4.744-1.702 5.399-4.145l12.789-47.615c.456-1.679.106-3.474-.948-4.858s-2.692-2.199-4.432-2.204h0z" class="B D E"/></g><path d="M210.376 74.403H75.014L61.475 25.685h162.433z" class="B D E G"/><path d="M83.998 53.021v.63H81.61v-.63zm2.973 0v.63h-2.394v-.63zm2.974 0v.63H87.57v-.63zm2.967 0v.63h-2.388v-.63zm2.974 0v.63h-2.394v-.63zm2.974 0v.63h-2.394v-.63zm2.967 0v.63h-2.388v-.63zm2.942 3.32l-2.633-7.018h.63l2.633 7.018zM81.591 42.802v.63h-2.388v-.63zm2.974 0v.63h-2.388v-.63zm3.005 0v.63h-2.394v-.63zm2.942 0v.63h-2.394v-.63zm2.967 0v.63h-2.388v-.63zm5.028 0v.63h-2.394v-.63zm2.967 0v.63h-2.388v-.63zm2.974 0v.63h-2.388v-.63zm2.973 0v.63h-2.394v-.63zm2.968 0v.63h-2.388v-.63zm2.973 0v.63h-2.388v-.63zm2.974 0v.63h-2.394v-.63zm5.021 0v.63h-2.388v-.63zm2.973 0v.63h-2.394v-.63zm2.974 0v.63h-2.394v-.63zm4.996 0v.63h-2.388v-.63zm2.999 0v.63h-2.369v-.63zm2.973 0v.63h-2.394v-.63zm11.177 0v.63h-2.388v-.63zm2.973 0v.63h-2.394v-.63zm2.974 0v.63h-2.394v-.63zm2.967 0v.63h-2.388v-.63zm2.974 0v.63h-2.394v-.63zm5.021 0v.63h-2.388v-.63zm2.973 0v.63h-2.381v-.63zm2.974 0v.63h-2.394v-.63zm5.021 0v.63h-2.388v-.63zm5.027 0v.63h-2.394v-.63z" class="H"/></g><g class="D"><g class="C E F"><path d="M222.195 146.343l-6.741 26.006 6.376 1.871z" class="B"/><path d="M225.219 118.856c-.761-1.169-1.038-2.587-.775-3.956.346-2.564 3.44-3.15 3.44-3.15s.674-.51 3.15.428 21.622 3.534 33.856 5.191 16.197.586 16.027 4.788-10.905 41.914-11.069 43.098-44.629-46.399-44.629-46.399z"/><path d="M225.213 118.857l51.466 6.977-8.317 61.349-51.466-6.977z" class="B"/></g><path d="M267.114 138.071l2.993.41m-21.736-2.949l16.374 2.224m-36.219-4.914l17.476 2.369m16.424 7.78l6.943.945m-41.58-5.638l27.537 3.73m-13.564 3.716l26.869 3.641m-41.585-5.638l11.951 1.625m11.693 7.138l17.199 2.331m-31.797-4.315l12.625 1.714m-22.408-3.037l7.61 1.033m27.077 9.223l6.155.832m-41.58-5.632l31.286 4.24m-7.843 4.485l17.401 2.363m-41.587-5.639l21.225 2.879m8.335 6.685l11.283 1.525m-34.165-4.631l20.122 2.728m-27.537-3.73l5.046.68" class="I J B"/><g class="E B"><path d="M276.683 125.836s.882-8.555 4.032-5.116" class="I"/><path d="M259.232 191.74l-.057 5.437-3.169-4.473-12.72-42.783 3.226-.964z" class="C F"/></g><path d="M243.49 151.299l1.76-.513 12.498 42.85-1.76.513z" class="B C G J"/><g class="E B"><path d="M259.232 191.753l-3.219.958 3.163 4.467z"/><g class="C"><path d="M257.594 194.941l1.581 2.237.031-2.715z" class="H"/><path d="M243.476 144.648h0a1.69 1.69 0 0 0-1.134 2.092l.945 3.182 3.226-.958-.945-3.182a1.69 1.69 0 0 0-2.092-1.134z" class="F"/><path d="M243.476 144.648h0a1.69 1.69 0 0 0-1.134 2.092l.454 1.518 3.219-.958-.447-1.518a1.69 1.69 0 0 0-2.092-1.134z" class="H"/></g></g></g><g class="B E I"><path d="M84.829 119.379l-1.197 1.783m7.787-9.369c-1.755 1.627-3.38 3.39-4.857 5.273m-2.293-1.927a67.13 67.13 0 0 0-4.668 7.56m49.102 6.293l-1.197 1.777m7.786-9.362a45.78 45.78 0 0 0-4.851 5.273m-2.293-1.94a68.17 68.17 0 0 0-4.668 7.598m68.109-18.938l-1.802-1.172m9.488 7.648a46.25 46.25 0 0 0-5.349-4.769m1.897-2.337a68.27 68.27 0 0 0-7.661-4.555" stroke="#fff"/><path d="M126.787 152.46l-1.31 7.629m1.676-10.508l-.145 1.172m1.827 5.55a53.28 53.28 0 0 1-2.52 6.722m34.02-3.364s.422 5.462 3.358 8.404m-3.78-2.942s1.26 3.78 3.78 5.462" class="D"/></g><path d="M74.34 194.317s2.797-2.249 2.797-21.584 3.219-33.459 7.188-39.652 7.68-8.675 9.419-8.675.491 2.23-1.985 5.45-4.706 4.958-5.701 8.927-.989 8.921.252 8.423 3.219-10.408 4.952-14.125 5.953-8.429 8.429-10.66 7.932-8.921 10.408-7.188.995 4.215-.491 5.204-7.44 6.93-10.162 10.66-4.46 13.135-2.974 13.381 5.947-13.627 8.423-16.6 12.392-11.157 14.622-11.403 2.482 3.219.498 4.958-8.675 9.166-10.905 13.627-3.226 12.644-1.26 10.66 5.204-10.162 7.932-12.89 10.905-11.397 12.89-10.408 1.487 3.471-.246 5.204-8.429 11.157-10.162 16.109-3.723 18.837-2.728 16.859 4.215-12.146 5.947-16.38 5.204-6.193 5.701-4.215-.498 2.974-1.739 7.44-1.26 16.38-4.952 23.045-18.509 20.929-20.488 25.88c-1.433 3.411-3.144 6.698-5.116 9.828m117.137-10.199s-2.867-3.925-2.867-23.26-3.226-33.459-7.188-39.652-7.686-8.675-9.418-8.675-.498 2.23 1.984 5.45 4.706 4.958 5.67 8.927.995 8.921-.246 8.423-3.219-10.408-4.958-14.125-5.947-8.429-8.423-10.66-7.932-8.921-10.414-7.188-.989 4.215.498 5.204 7.434 6.93 10.162 10.66 4.46 13.135 2.974 13.381-5.928-13.627-8.404-16.588-12.398-11.157-14.629-11.403-2.476 3.219-.491 4.958 8.675 9.167 10.905 13.627 3.219 12.644 1.26 10.66-5.204-10.162-7.925-12.89-10.905-11.397-12.89-10.408-1.487 3.471.246 5.204 8.429 11.157 10.162 16.109 3.717 18.837 2.728 16.859-4.215-12.146-5.947-16.38-5.204-6.193-5.702-4.215.498 2.974 1.733 7.44 1.26 16.38 4.958 23.045 18.094 19.675 20.078 24.633 5.576 12.77 5.576 12.77" style="mix-blend-mode:multiply" class="C G"/><g class="D E B C"><path d="M73.395 199.08s3.717-12.14 3.717-31.5 3.219-33.459 7.188-39.652 7.68-8.675 9.418-8.675.491 2.23-1.984 5.45-4.706 4.958-5.702 8.921-.989 8.927.252 8.429 3.219-10.408 4.952-14.125 5.953-8.429 8.429-10.66 7.932-8.921 10.408-7.188.995 4.215-.491 5.204-7.44 6.93-10.162 10.66-4.46 13.135-2.974 13.381 5.947-13.627 8.423-16.607 12.392-11.151 14.622-11.397 2.482 3.219.498 4.958-8.675 9.166-10.905 13.627-3.226 12.644-1.26 10.66 5.204-10.162 7.932-12.89 10.905-11.397 12.89-10.408 1.487 3.471-.246 5.204-8.429 11.151-10.162 16.109-3.723 18.837-2.728 16.852 4.215-12.14 5.947-16.38 5.204-6.199 5.701-4.215-.498 2.974-1.739 7.434-1.26 16.38-4.952 23.052-18.094 24.784-20.078 29.742l-6.445 15.863m118.927-11.849s-3.717-12.14-3.717-31.5-3.226-33.459-7.188-39.652-7.686-8.675-9.418-8.675-.498 2.23 1.984 5.45 4.706 4.958 5.67 8.921.995 8.927-.246 8.429-3.219-10.408-4.958-14.125-5.947-8.429-8.423-10.66-7.932-8.921-10.414-7.188-.989 4.215.498 5.204 7.434 6.93 10.162 10.66 4.46 13.135 2.974 13.381-5.947-13.627-8.423-16.607-12.398-11.151-14.629-11.397-2.476 3.219-.491 4.958 8.675 9.166 10.905 13.627 3.219 12.644 1.26 10.66-5.204-10.162-7.925-12.89-10.905-11.397-12.89-10.408-1.487 3.471.246 5.204 8.429 11.151 10.162 16.109 3.717 18.837 2.728 16.852-4.215-12.14-5.947-16.38-5.204-6.199-5.701-4.215.498 2.974 1.732 7.434 1.26 16.38 4.958 23.052 18.094 24.784 20.078 29.742l6.445 15.863" class="F I"/><path d="M57.708 236.88h37.8l1.89-6.3c2.974-8.908 12.6-20.047 12.6-20.047a65.15 65.15 0 0 0-23.789-13.343c-14.49-4.46-25.099-3.15-25.099-3.15a58.32 58.32 0 0 1 .63 24.57l-4.032 18.27zm132.804 0h39.274l-6.703-17.438c-3.717-9.652-2.23-22.642-3.717-22.642s-18.188-1.115-26.353 1.481-17.451 10.023-17.451 10.023a82.07 82.07 0 0 1 10.767 15.977 55.25 55.25 0 0 1 4.183 12.6z" class="H"/></g><path d="M81.32 201.726c-.271-1.071-4.303.542-4.303.542s1.348-5.103-.8-5.103-2.419 3.78-2.419 3.78-4.032-1.606-4.032.806 2.684 2.369 2.684 2.369-3.226 4.032-.806 4.832 4.026-2.148 4.026-2.148 1.613 2.69 3.78 1.613.535-3.49.535-3.49 1.6-2.123 1.336-3.2zm-5.374 4.032a1.1 1.1 0 0 1-.851-1.236c.084-.571.594-.981 1.17-.94s1.022.521 1.023 1.099a1.26 1.26 0 0 1-1.342 1.077h0zM87.23 231.84c-.271-1.071-4.303.542-4.303.542s1.348-5.103-.806-5.103-2.413 3.78-2.413 3.78-4.032-1.613-4.032.8 2.69 2.419 2.69 2.419-3.226 4.032-.806 4.838 4.026-2.155 4.026-2.155 1.613 2.69 3.78 1.613.536-3.49.536-3.49 1.594-2.199 1.329-3.244zm-5.374 4.032a1.1 1.1 0 0 1-.851-1.236c.084-.571.594-.981 1.17-.94s1.022.521 1.023 1.099a1.23 1.23 0 0 1-1.342 1.046v.031zm-18.27 0c-.271-1.077-4.297.536-4.297.536s1.342-5.103-.806-5.103-2.419 3.78-2.419 3.78-4.032-1.613-4.032.806 2.69 2.419 2.69 2.419-3.226 4.026-.806 4.832 4.026-2.148 4.026-2.148 1.613 2.684 3.78 1.613.542-3.49.542-3.49 1.594-2.205 1.329-3.276l-.006.031zm-5.374 4.026a1.1 1.1 0 0 1-.851-1.238c.085-.572.598-.981 1.174-.937s1.021.526 1.019 1.105a1.23 1.23 0 0 1-1.336 1.039l-.006.031zm34.65-24.979h2.955c2.148 0 3.49 2.419 3.49 2.419-4.561 1.31-6.439-2.451-6.439-2.451l-.006.031zm-2.955 20.954h2.955c2.148 0 3.49 2.419 3.49 2.419-4.561 1.31-6.439-2.451-6.439-2.451l-.006.031zm-25.78-4.032h2.955c2.148 0 3.49 2.419 3.49 2.419-4.568 1.31-6.445-2.419-6.445-2.419zm14.282-18.957l1.726 2.4c1.26 1.751.069 4.246.069 4.246-3.755-2.955-1.795-6.678-1.795-6.678v.032zm-14.78 8.026l1.348-2.627c.989-1.89 3.749-2.003 3.749-2.003-.926 4.675-5.097 4.631-5.097 4.631zm144.202-14.081c-.271-1.071-4.303.542-4.303.542s1.348-5.103-.8-5.103-2.419 3.78-2.419 3.78-4.032-1.606-4.032.806 2.69 2.419 2.69 2.419-3.226 4.032-.806 4.838 4.026-2.155 4.026-2.155 1.613 2.69 3.78 1.613.535-3.49.535-3.49 1.594-2.18 1.329-3.251zm-5.374 4.032a1.1 1.1 0 0 1-.851-1.236c.084-.571.594-.981 1.17-.94s1.022.521 1.023 1.099a1.23 1.23 0 0 1-1.342 1.077h0zm17.993 16.922c-.265-1.077-4.297.536-4.297.536s1.342-5.103-.806-5.103-2.413 3.78-2.413 3.78-4.032-1.613-4.032.806 2.684 2.419 2.684 2.419-3.219 4.026-.8 4.832 4.026-2.148 4.026-2.148 1.613 2.684 3.78 1.613.536-3.49.536-3.49 1.594-2.173 1.323-3.244zm-5.368 4.057a1.1 1.1 0 0 1-.851-1.238c.085-.572.598-.981 1.174-.937s1.021.526 1.019 1.105a1.23 1.23 0 0 1-1.342 1.071h0zm-8.058 4.032c-.271-1.077-4.297.536-4.297.536s1.342-5.103-.806-5.103-2.419 3.78-2.419 3.78-4.032-1.613-4.032.806 2.69 2.419 2.69 2.419-3.226 4.026-.806 4.832 4.026-2.148 4.026-2.148 1.613 2.684 3.78 1.613.542-3.49.542-3.49 1.569-2.205 1.323-3.276v.031zm-5.374 4.026a1.1 1.1 0 0 1-.851-1.238c.085-.572.598-.981 1.174-.937s1.021.526 1.019 1.105a1.23 1.23 0 0 1-1.342 1.039v.031zm17.728-19.876h2.955c2.148 0 3.49 2.419 3.49 2.419-4.567 1.31-6.445-2.451-6.445-2.451v.032zm-31.695 15.284h2.955c2.148 0 3.49 2.413 3.49 2.413-4.567 1.348-6.445-2.413-6.445-2.413zm17.237-17.325l1.726 2.4c1.26 1.751.069 4.246.069 4.246-3.755-2.948-1.796-6.647-1.796-6.647zM222.39 233l1.72 2.4c1.26 1.745.069 4.246.069 4.246-3.755-2.929-1.789-6.646-1.789-6.646zm-32.275-6.987l1.348-2.627c.989-1.89 3.78-2.003 3.78-2.003-.932 4.675-5.135 4.631-5.135 4.631h.006z" class="F C"/></g><defs ><path id="B" d="M33.106 46.57s-2.161-5.405-5.941-9.185-19.19-6.218-19.19-6.218a56.5 56.5 0 0 1 6.76 7.837c3.509 4.864 15.12 15.945 15.12 15.945s-5.67-4.864-10.811-5.405S.939 51.704.145 51.704s4.864 2.161 8.921 4.051 19.725 3.515 19.725 3.515-6.754 1.89-11.34 3.515-8.933 13.507-8.933 13.507 5.947-5.405 11.082-6.754 12.43-3.78 12.43-3.78-4.593 5.134-5.67 8.65-.271 11.617-.271 11.617 2.432-7.56 5.405-10.54 6.206-8.077 6.206-8.077a74.34 74.34 0 0 1 4.057 7.56c2.161 4.593 3.509 11.34 3.509 11.34s3.515-7.56 3.245-11.34-4.322-10.54-4.322-10.54 2.703-1.89 6.754-.271 11.082 8.379 11.082 8.379-1.625-8.921-4.328-12.43-14.32-4.599-14.32-4.599 6.489-3.78 10.54-4.593S63.365 52 63.365 52s-6.212-8.65-11.075-9.192-12.159 7.006-12.159 7.006l2.167-10.811c.535-2.703-.542-9.45-.542-9.45s-2.974 1.619-6.489 6.754c-2.079 2.988-2.858 6.69-2.161 10.263z"/><path id="C" d="M115.183 88.263h8.795v5.777h-8.795z"/><path id="D" d="M87.318 123.902h8.165v8.102h-8.165z"/><path id="E" d="M123.329 95.426h8.228v8.102h-8.228z"/></defs></svg>